HIERARCHY
ROOT pelvis
{
	OFFSET 0.003123 -0.012037 -0.351407
	CHANNELS 6 Xposition Yposition Zposition Zrotation Yrotation Xrotation 
	JOINT left_hip
	{
		OFFSET 0.058189 0.026001 -0.092763
		CHANNELS 3 Zrotation Yrotation Xrotation
		JOINT left_knee
		{
			OFFSET 0.054695 0.009396 -0.378753
			CHANNELS 3 Zrotation Yrotation Xrotation
			JOINT left_ankle
			{
				OFFSET -0.043453 0.031876 -0.403060
				CHANNELS 3 Zrotation Yrotation Xrotation
				JOINT left_foot
				{
					OFFSET 0.047257 -0.118216 -0.057997
					CHANNELS 3 Zrotation Yrotation Xrotation
					End Site
					{
						OFFSET 0.000000 0.000000 0.000000
					}
				}
			}
		}
	}
	JOINT right_hip
	{
		OFFSET -0.063267 0.021250 -0.103908
		CHANNELS 3 Zrotation Yrotation Xrotation
		JOINT right_knee
		{
			OFFSET -0.044210 0.016824 -0.362380
			CHANNELS 3 Zrotation Yrotation Xrotation
			JOINT right_ankle
			{
				OFFSET 0.015417 0.020192 -0.410728
				CHANNELS 3 Zrotation Yrotation Xrotation
				JOINT right_foot
				{
					OFFSET -0.038812 -0.119049 -0.058328
					CHANNELS 3 Zrotation Yrotation Xrotation
					End Site
					{
						OFFSET 0.000000 0.000000 0.000000
					}
				}
			}
		}
	}
	JOINT spine1
	{
		OFFSET -0.002763 0.027618 0.109891
		CHANNELS 3 Zrotation Yrotation Xrotation
		JOINT spine2
		{
			OFFSET 0.009448 0.005940 0.131853
			CHANNELS 3 Zrotation Yrotation Xrotation
			JOINT spine3
			{
				OFFSET -0.011330 -0.028447 0.052235
				CHANNELS 3 Zrotation Yrotation Xrotation
				JOINT neck
				{
					OFFSET -0.012164 0.031615 0.165167
					CHANNELS 3 Zrotation Yrotation Xrotation
					JOINT head
					{
						OFFSET 0.024783 -0.020737 0.160452
						CHANNELS 3 Zrotation Yrotation Xrotation
						End Site
						{
							OFFSET 0.000000 0.000000 0.000000
						}
					}
				}
				JOINT left_collar
				{
					OFFSET 0.046364 0.007220 0.084944
					CHANNELS 3 Zrotation Yrotation Xrotation
					JOINT left_shoulder
					{
						OFFSET 0.119239 0.015461 0.057728
						CHANNELS 3 Zrotation Yrotation Xrotation
						JOINT left_elbow
						{
							OFFSET 0.254123 0.042459 -0.072151
							CHANNELS 3 Zrotation Yrotation Xrotation
							JOINT left_wrist
							{
								OFFSET 0.251987 0.002472 0.023221
								CHANNELS 3 Zrotation Yrotation Xrotation
								JOINT left_index1
								{
									OFFSET 0.101902 -0.019351 -0.008688
									CHANNELS 3 Zrotation Yrotation Xrotation
									JOINT left_index2
									{
										OFFSET 0.031949 -0.003010 0.002218
										CHANNELS 3 Zrotation Yrotation Xrotation
										JOINT left_index3
										{
											OFFSET 0.022545 -0.000055 -0.002350
											CHANNELS 3 Zrotation Yrotation Xrotation
											End Site
											{
												OFFSET 0.000000 0.000000 0.000000
											}
										}
									}
								}
								JOINT left_middle1
								{
									OFFSET 0.109398 0.003981 -0.006328
									CHANNELS 3 Zrotation Yrotation Xrotation
									JOINT left_middle2
									{
										OFFSET 0.030611 0.004023 0.000807
										CHANNELS 3 Zrotation Yrotation Xrotation
										JOINT left_middle3
										{
											OFFSET 0.023515 0.004114 -0.002009
											CHANNELS 3 Zrotation Yrotation Xrotation
											End Site
											{
												OFFSET 0.000000 0.000000 0.000000
											}
										}
									}
								}
								JOINT left_pinky1
								{
									OFFSET 0.084047 0.043750 -0.014539
									CHANNELS 3 Zrotation Yrotation Xrotation
									JOINT left_pinky2
									{
										OFFSET 0.015471 0.011999 -0.001132
										CHANNELS 3 Zrotation Yrotation Xrotation
										JOINT left_pinky3
										{
											OFFSET 0.015533 0.011217 -0.001665
											CHANNELS 3 Zrotation Yrotation Xrotation
											End Site
											{
												OFFSET 0.000000 0.000000 0.000000
											}
										}
									}
								}
								JOINT left_ring1
								{
									OFFSET 0.097444 0.027345 -0.009268
									CHANNELS 3 Zrotation Yrotation Xrotation
									JOINT left_ring2
									{
										OFFSET 0.028047 0.005266 0.001485
										CHANNELS 3 Zrotation Yrotation Xrotation
										JOINT left_ring3
										{
											OFFSET 0.022822 0.007094 -0.001458
											CHANNELS 3 Zrotation Yrotation Xrotation
											End Site
											{
												OFFSET 0.000000 0.000000 0.000000
											}
										}
									}
								}
								JOINT left_thumb1
								{
									OFFSET 0.040636 -0.025611 -0.017977
									CHANNELS 3 Zrotation Yrotation Xrotation
									JOINT left_thumb2
									{
										OFFSET 0.017016 -0.024978 0.000976
										CHANNELS 3 Zrotation Yrotation Xrotation
										JOINT left_thumb3
										{
											OFFSET 0.020523 -0.015523 -0.005160
											CHANNELS 3 Zrotation Yrotation Xrotation
											End Site
											{
												OFFSET 0.000000 0.000000 0.000000
											}
										}
									}
								}
							}
						}
					}
				}
				JOINT right_collar
				{
					OFFSET -0.047695 0.013400 0.084339
					CHANNELS 3 Zrotation Yrotation Xrotation
					JOINT right_shoulder
					{
						OFFSET -0.102578 0.012669 0.053524
						CHANNELS 3 Zrotation Yrotation Xrotation
						JOINT right_elbow
						{
							OFFSET -0.271150 0.026467 -0.036492
							CHANNELS 3 Zrotation Yrotation Xrotation
							JOINT right_wrist
							{
								OFFSET -0.249267 0.015325 -0.004533
								CHANNELS 3 Zrotation Yrotation Xrotation
								JOINT right_index1
								{
									OFFSET -0.099880 -0.019600 -0.011783
									CHANNELS 3 Zrotation Yrotation Xrotation
									JOINT right_index2
									{
										OFFSET -0.031948 -0.003011 0.002218
										CHANNELS 3 Zrotation Yrotation Xrotation
										JOINT right_index3
										{
											OFFSET -0.022545 -0.000055 -0.002349
											CHANNELS 3 Zrotation Yrotation Xrotation
											End Site
											{
												OFFSET 0.000000 0.000000 0.000000
											}
										}
									}
								}
								JOINT right_middle1
								{
									OFFSET -0.107376 0.003734 -0.009422
									CHANNELS 3 Zrotation Yrotation Xrotation
									JOINT right_middle2
									{
										OFFSET -0.030611 0.004023 0.000807
										CHANNELS 3 Zrotation Yrotation Xrotation
										JOINT right_middle3
										{
											OFFSET -0.023515 0.004114 -0.002009
											CHANNELS 3 Zrotation Yrotation Xrotation
											End Site
											{
												OFFSET 0.000000 0.000000 0.000000
											}
										}
									}
								}
								JOINT right_pinky1
								{
									OFFSET -0.082027 0.043503 -0.017634
									CHANNELS 3 Zrotation Yrotation Xrotation
									JOINT right_pinky2
									{
										OFFSET -0.015471 0.011999 -0.001132
										CHANNELS 3 Zrotation Yrotation Xrotation
										JOINT right_pinky3
										{
											OFFSET -0.015533 0.011216 -0.001665
											CHANNELS 3 Zrotation Yrotation Xrotation
											End Site
											{
												OFFSET 0.000000 0.000000 0.000000
											}
										}
									}
								}
								JOINT right_ring1
								{
									OFFSET -0.095423 0.027099 -0.012362
									CHANNELS 3 Zrotation Yrotation Xrotation
									JOINT right_ring2
									{
										OFFSET -0.028047 0.005266 0.001485
										CHANNELS 3 Zrotation Yrotation Xrotation
										JOINT right_ring3
										{
											OFFSET -0.022822 0.007093 -0.001459
											CHANNELS 3 Zrotation Yrotation Xrotation
											End Site
											{
												OFFSET 0.000000 0.000000 0.000000
											}
										}
									}
								}
								JOINT right_thumb1
								{
									OFFSET -0.038613 -0.025861 -0.021074
									CHANNELS 3 Zrotation Yrotation Xrotation
									JOINT right_thumb2
									{
										OFFSET -0.017015 -0.024978 0.000976
										CHANNELS 3 Zrotation Yrotation Xrotation
										JOINT right_thumb3
										{
											OFFSET -0.020526 -0.015522 -0.005157
											CHANNELS 3 Zrotation Yrotation Xrotation
											End Site
											{
												OFFSET 0.000000 0.000000 0.000000
											}
										}
									}
								}
							}
						}
					}
				}
			}
		}
	}
}
MOTION
Frames: 4
Frame Time: 0.050000
-0.621054 0.997233 0.110595 -4.773756 0.264276 -112.716580 1.183874 -11.048112 -12.662007 2.616088 17.735675 24.606910 25.233245 -11.288510 14.926443 0.000000 0.000000 0.000000 -0.767721 -4.594729 11.781979 4.477396 10.463511 25.475284 14.745854 -14.001916 10.834333 0.000000 0.000000 0.000000 -1.390442 -0.501654 50.037926 -51.099137 -18.263860 3.392905 147.266422 -32.131271 67.087000 -51.687507 23.106965 -103.143817 0.000000 0.000000 0.000000 -78.621142 -56.455996 88.237837 -90.888032 -73.771415 -63.463372 -27.751191 15.799330 -2.512572 -51.857852 18.260709 85.256032 -94.888390 -44.832736 -49.404602 15.514512 -11.658250 1.100095 0.000000 0.000000 0.000000 119.046316 70.551976 -9.925110 -19.580787 3.373063 -2.047564 0.000000 0.000000 0.000000 34.486574 51.802342 -73.315695 -11.751080 -5.085993 0.030860 0.000000 0.000000 0.000000 128.826189 33.779336 -73.647569 -7.662371 3.025510 -1.405806 0.000000 0.000000 0.000000 167.701174 71.634276 14.273668 -16.722079 -3.331565 -5.538641 0.000000 0.000000 0.000000 29.414152 -39.898040 -4.918562 -2.036084 31.121261 3.603073 -4.274716 -11.887602 -0.898055 -133.133239 -12.519779 159.050955 -20.553774 -24.196174 7.313986 -0.457656 11.117724 -0.165400 0.000000 0.000000 0.000000 -3.820327 -20.624836 6.868333 -1.500545 9.829573 1.993284 0.000000 0.000000 0.000000 39.674732 -10.300132 7.842749 -4.216943 3.348786 3.026312 0.000000 0.000000 0.000000 6.092979 -17.319787 4.883490 3.813077 9.946812 3.252013 0.000000 0.000000 0.000000 -54.553460 -30.647067 -6.639992 12.835707 9.262151 -9.666236 0.000000 0.000000 0.000000 
-0.613972 0.993977 0.117375 -5.052691 -0.108788 -112.716125 1.094134 -10.575240 -12.119270 2.583182 17.771701 19.025121 27.950396 -13.230754 14.733160 0.000000 0.000000 0.000000 -0.698653 -4.636438 11.797928 4.751284 10.739977 26.324327 15.110711 -14.009983 10.279585 0.000000 0.000000 0.000000 -1.150819 -1.666628 50.395264 -52.088547 -18.238910 3.288812 147.761879 -31.803712 66.460831 -51.210901 24.055979 -102.303453 0.000000 0.000000 0.000000 -76.623366 -55.168870 87.176227 -91.375033 -73.414610 -64.753980 -28.859684 17.291206 -2.806224 -53.733093 14.937287 78.996711 -94.922679 -37.698055 -48.178800 16.162948 -12.028434 0.827394 0.000000 0.000000 0.000000 119.448357 67.583807 -8.941292 -18.369952 3.192511 -1.876805 0.000000 0.000000 0.000000 39.680363 49.902484 -68.406565 -12.051838 -4.669332 -0.202791 0.000000 0.000000 0.000000 124.497425 29.402612 -74.365136 -8.455388 3.631175 -1.682899 0.000000 0.000000 0.000000 155.786595 70.056774 3.030369 -16.649558 -3.515395 -5.653513 0.000000 0.000000 0.000000 29.849473 -40.006873 -5.245695 -2.033971 31.106246 3.612307 -4.342070 -11.989660 -0.909368 -133.537135 -6.600671 143.385722 -20.653716 -20.128144 4.579314 0.547086 12.708515 -0.087474 0.000000 0.000000 0.000000 -3.526699 -17.526910 5.884658 0.170533 10.689908 2.258814 0.000000 0.000000 0.000000 40.987082 -11.823804 7.614708 -3.382899 3.360043 2.936715 0.000000 0.000000 0.000000 6.656104 -16.310978 4.912149 5.136493 10.276230 3.508687 0.000000 0.000000 0.000000 -55.327241 -29.508675 -6.595240 13.677569 10.974957 -10.774225 0.000000 0.000000 0.000000 
-0.603251 0.989902 0.124432 -5.284680 -0.419982 -112.715675 1.317666 -11.151607 -11.555391 2.646202 18.242026 16.142393 30.144178 -14.741356 14.483022 0.000000 0.000000 0.000000 -0.635440 -4.453713 11.679527 5.106272 11.112794 27.363264 15.660456 -14.005646 9.517623 0.000000 0.000000 0.000000 -0.952375 -2.704813 50.736226 -53.004948 -18.286974 3.235993 148.361168 -31.725898 66.000073 -50.933921 24.992265 -101.558864 0.000000 0.000000 0.000000 -74.961139 -54.316675 86.551210 -92.229482 -73.381508 -65.865689 -29.738218 18.743288 -3.070622 -54.852164 12.710654 74.460400 -95.348098 -32.202283 -47.154313 16.693967 -12.865870 0.534055 0.000000 0.000000 0.000000 119.477415 64.984207 -8.367291 -17.416274 2.811771 -1.715810 0.000000 0.000000 0.000000 44.057830 48.149145 -64.494823 -12.207137 -4.240087 -0.430637 0.000000 0.000000 0.000000 121.686478 25.934275 -74.345611 -9.104358 4.049593 -1.889909 0.000000 0.000000 0.000000 148.596020 68.432332 -3.832091 -16.570189 -3.689874 -5.761723 0.000000 0.000000 0.000000 30.110475 -40.100300 -5.656528 -2.052966 31.098430 3.610749 -4.425516 -12.114688 -0.922792 -134.592248 -0.908602 128.721421 -19.546668 -17.047066 3.161493 1.644775 13.032513 -0.071159 0.000000 0.000000 0.000000 -2.368453 -15.611753 5.236544 1.434920 10.461836 2.222822 0.000000 0.000000 0.000000 41.958181 -13.290739 6.825097 -2.750462 3.130788 2.677716 0.000000 0.000000 0.000000 7.447781 -16.058520 4.880881 6.059871 9.934082 3.438866 0.000000 0.000000 0.000000 -56.249457 -27.425587 -5.996426 14.492425 11.894572 -11.292082 0.000000 0.000000 0.000000 
-0.590411 0.985002 0.132018 -5.429140 -0.618680 -112.713423 2.425715 -14.809932 -11.528360 3.310985 20.579210 19.203035 32.080516 -16.047767 13.350539 0.000000 0.000000 0.000000 -0.599723 -3.998331 11.490476 5.515210 11.566328 28.467247 16.365675 -13.983369 8.606183 0.000000 0.000000 0.000000 -0.844282 -3.551020 51.065630 -53.798442 -18.423069 3.207873 149.198601 -32.059037 65.783345 -51.014193 25.991011 -101.010773 0.000000 0.000000 0.000000 -73.659046 -54.322387 86.629445 -93.914075 -74.044509 -66.697094 -30.382714 20.154862 -3.292704 -54.910876 12.130717 73.295902 -96.123248 -30.003682 -46.569009 16.600452 -14.570066 0.249325 0.000000 0.000000 0.000000 120.285456 64.270533 -6.719694 -16.819507 2.299044 -1.565680 0.000000 0.000000 0.000000 46.184488 47.897892 -63.133375 -12.091674 -3.972763 -0.519639 0.000000 0.000000 0.000000 121.020973 25.119007 -73.094056 -9.518292 4.029664 -1.926332 0.000000 0.000000 0.000000 147.787042 67.390082 -4.422714 -16.526962 -3.781502 -5.815915 0.000000 0.000000 0.000000 29.986426 -40.182165 -6.116882 -2.148187 31.092671 3.573683 -4.544696 -12.308603 -0.949168 -137.187213 3.058318 123.560158 -17.691109 -17.523387 4.210572 2.047134 11.529940 -0.229200 0.000000 0.000000 0.000000 -0.174697 -16.843159 4.894621 1.220414 9.356634 1.833731 0.000000 0.000000 0.000000 42.794861 -14.047890 5.382909 -2.740601 2.676106 2.281239 0.000000 0.000000 0.000000 8.825484 -17.426045 4.448525 5.719790 9.058227 2.987758 0.000000 0.000000 0.000000 -58.358311 -23.317321 -4.277949 14.302440 11.173649 -10.902031 0.000000 0.000000 0.000000 
